<?xml version="1.0" encoding="utf-8"?>
<!-- Generator: Adobe Illustrator 22.0.1, SVG Export Plug-In . SVG Version: 6.00 Build 0)  -->
<svg version="1.1" id="Layer_1" xmlns="http://www.w3.org/2000/svg" xmlns:xlink="http://www.w3.org/1999/xlink" x="0px" y="0px"
	 viewBox="0 0 32 32" style="enable-background:new 0 0 32 32;" xml:space="preserve">
<style type="text/css">
	.st0{fill:#11111;}
	.st1{fill:#455A64;}
	.st2{fill:#00BCD4;}
</style>
<path class="st0" d="M29.6,16c0,7.5-6.1,13.6-13.6,13.6S2.4,23.5,2.4,16S8.5,2.4,16,2.4S29.6,8.5,29.6,16z"/>
<path class="st1" d="M13.6,29.6v-4.4c0-0.2,0.2-0.4,0.4-0.4s0.4,0.2,0.4,0.4v4.4H16v-5.2c0-0.2,0.2-0.4,0.4-0.4s0.4,0.2,0.4,0.4v5.2
	h1.6v-4.4c0-0.2,0.2-0.4,0.4-0.4c0.2,0,0.4,0.2,0.4,0.4v4.4h1.4c0.2-0.2,0.2-0.5,0.2-0.9v-3.1c0-1.8-1.5-4.2-3.4-4.2h-2
	c-1.8,0-3.4,2.5-3.4,4.2v3.1c0,0.3,0.1,0.6,0.2,0.9H13.6L13.6,29.6z M28.9,17.9L28.9,17.9c0,0-1-0.3-1.9-0.3h-0.1
	c-0.9,0-2.3,0.2-2.3,0.2c-0.1,0-0.1,0-0.1-0.1c0-0.1,0-0.1,0.1-0.1s1.6-0.2,2.5-0.2c0.9,0,1.9,0.3,2,0.3c0.1,0,0.1,0.1,0.1,0.2
	C29,17.8,29,17.9,28.9,17.9z M28.6,18.6L28.6,18.6c0,0-1.1-0.3-2.1-0.3c-0.7,0-2.4,0.2-2.5,0.2s-0.1,0-0.1-0.1s0-0.1,0.1-0.1
	s1.8-0.2,2.5-0.2c1,0,2.1,0.3,2.1,0.3C28.7,18.4,28.7,18.5,28.6,18.6C28.7,18.5,28.7,18.6,28.6,18.6z M3,17.9C3,17.9,3,17.9,3,17.9
	C3,17.8,3,17.8,3,17.7c0.6-0.2,1.9-0.4,2.6-0.4c0.6,0,2.8,0.2,2.9,0.2c0.1,0,0.1,0.1,0.1,0.1c0,0.1-0.1,0.1-0.1,0.1
	s-2.2-0.2-2.8-0.2C4.9,17.6,3.7,17.8,3,17.9L3,17.9z M3.4,19.1C3.4,19.1,3.3,19.1,3.4,19.1C3.3,19,3.3,19,3.3,18.9
	c0.1,0,1.1-0.6,2.3-0.8c1-0.2,3.2,0.1,3.4,0.1C9,18.2,9,18.2,9,18.2C9,18.3,9,18.3,9,18.3l0,0c0,0-2.2-0.2-3.3-0.1
	C4.5,18.5,3.4,19.1,3.4,19.1L3.4,19.1z"/>
<path class="st1" d="M8.2,15.6c0-3.5,3.7-6.8,8.2-6.8s8.2,3.2,8.2,6.8s-2.6,6-8.2,6S8.2,19.1,8.2,15.6z"/>
<path class="st1" d="M19.7,9.8c0,0,1.4-1.8,3.8-1.8c1,1,0.3,3.8,0,4.6L19.7,9.8z M13.1,9.8c0,0-1.4-1.8-3.8-1.8c-1,1-0.3,3.8,0,4.6
	L13.1,9.8z M12.9,25.5c0,0-1.8,0-2.2,0c-1,0-1.8-0.4-2.2-1.2c-0.5-0.9-0.9-1.8-2.1-2.6c-0.2-0.2-0.1-0.3,0.3-0.3
	c0.4,0.1,1.1,0.2,1.7,0.9c0.6,0.7,1.2,1.6,2.2,1.6s2.2,0,2.8-0.7L12.9,25.5z"/>
<path class="st2" d="M16,0C7.2,0,0,7.2,0,16s7.2,16,16,16s16-7.2,16-16S24.8,0,16,0z M16,28.8C9,28.8,3.2,23,3.2,16S9,3.2,16,3.2
	S28.8,9,28.8,16S23,28.8,16,28.8z"/>
</svg>
