<svg xmlns="http://www.w3.org/2000/svg" viewBox="0 0 203.36 92.39"><defs><style>.cls-1{fill:#efb000;}</style></defs><title>Asset 1</title><g id="Layer_2" data-name="Layer 2"><g id="Layer_1-2" data-name="Layer 1"><path class="cls-1" d="M157.58,0a46.2,46.2,0,1,0,45.78,46.2A46,46,0,0,0,157.58,0Zm0,87A40.8,40.8,0,1,1,198,46.2,40.61,40.61,0,0,1,157.58,87Z"/><path class="cls-1" d="M105.2,10.65s.2,0,.55.14c-.5-.15-1-.29-1.48-.4C104.58,10.47,104.89,10.55,105.2,10.65Z"/><path class="cls-1" d="M104.09,10.35l-.53-.11Z"/><path class="cls-1" d="M102.2,10l-.66-.06Z"/><path class="cls-1" d="M113.74,14.91l-.45-.32Z"/><path class="cls-1" d="M86.89,16a22.31,22.31,0,0,1,8.51-5.33A20.72,20.72,0,0,0,86.89,16Z"/><path class="cls-1" d="M112.77,14.24a28.83,28.83,0,0,0-3.25-1.91A31.3,31.3,0,0,1,112.77,14.24Z"/><path class="cls-1" d="M109.46,12.3l-.78-.38Z"/><path class="cls-1" d="M108.17,11.69l-.25-.11Z"/><path class="cls-1" d="M103,10.14l-.2,0Z"/><path class="cls-1" d="M96.18,10.44A17.68,17.68,0,0,1,101.5,10,16.42,16.42,0,0,0,96.18,10.44Z"/><path class="cls-1" d="M45.78,0a46.2,46.2,0,0,0,0,92.39A45.62,45.62,0,0,0,83.57,72.27h-6.7A40.36,40.36,0,0,1,5.35,46.2,40.36,40.36,0,0,1,76.87,20.12a51.8,51.8,0,0,1,3.38-4.31A45.47,45.47,0,0,0,45.78,0Z"/><path class="cls-1" d="M86.89,16a20.72,20.72,0,0,1,8.51-5.33h0a7.43,7.43,0,0,1,.76-.21A16.42,16.42,0,0,1,101.5,10h0l.66.06.55.07.2,0,.61.1.53.11.18,0c.49.11,1,.25,1.48.4a19.37,19.37,0,0,1,2.17.79l.25.11.51.23.78.38.06,0a28.83,28.83,0,0,1,3.25,1.91l.52.35.45.32a44.23,44.23,0,0,1,6.05,5.21l2.75-3.78s-21.78-24-42.29-.53a48.62,48.62,0,0,1,3.1,4A39.37,39.37,0,0,1,86.89,16Z"/><path class="cls-1" d="M83.35,19.82a48.62,48.62,0,0,0-3.1-4,51.8,51.8,0,0,0-3.38,4.31H83.1Z"/><path class="cls-1" d="M76.88,20.12a41.2,41.2,0,0,1,3,4.23l.1.14a41,41,0,0,1,3.08-4.37Z"/><path class="cls-1" d="M108.68,11.92l-.51-.23Z"/><path class="cls-1" d="M109.52,12.33l-.06,0Z"/><path class="cls-1" d="M119.79,20.12a44.23,44.23,0,0,0-6.05-5.21A48.94,48.94,0,0,1,119.79,20.12Z"/><path class="cls-1" d="M113.29,14.59l-.52-.35Z"/><path class="cls-1" d="M103.56,10.24l-.61-.1Z"/><path class="cls-1" d="M95.4,10.65c.26-.07.52-.15.78-.21a7.43,7.43,0,0,0-.76.21Z"/><path class="cls-1" d="M101.54,10h0Z"/><path class="cls-1" d="M102.75,10.11,102.2,10Z"/><path class="cls-1" d="M104.27,10.39l-.18,0Z"/><path class="cls-1" d="M107.92,11.58a19.37,19.37,0,0,0-2.17-.79C106.46,11,107.18,11.27,107.92,11.58Z"/></g></g></svg>